<svg width="1588" height="1588" viewBox="0 0 1588 1588" fill="none" xmlns="http://www.w3.org/2000/svg">
<path d="M793.774 224.88V394.959L517.879 1117.23L351.495 1181.48L793.774 224.88Z" fill="black"/>
<path d="M72.4404 1220.79V1288.82L793.774 1011.02V840.943L72.4404 1220.79Z" fill="black"/>
<path d="M241.774 840.885L72.4404 1220.79V1288.82L241.774 1011.02V840.885Z" fill="black"/>
<path d="M241.774 840.885L517.88 1117.23L351.746 1181.19L241.774 1011.02V840.885Z" fill="black"/>
<path d="M793.774 224.88V394.959L1069.47 1117.23L1235.53 1181.19L793.774 224.88Z" fill="black"/>
<path d="M1515.11 1220.79V1288.82L793.774 1011.02V840.943L1515.11 1220.79Z" fill="black"/>
<path d="M1345.77 840.885L1515.11 1220.79V1288.82L1345.77 1011.02V840.885Z" fill="black"/>
<path d="M1345.77 840.885L1069.63 1117.23L1235.78 1181.19L1345.77 1011.02V840.885Z" fill="black"/>
</svg>
